{
  "asset": {
    "version": "2.0",
    "generator": "babylon.js glTF exporter for 3dsmax 2024 v20241219.2"
  },
  "scene": 0,
  "scenes": [
    {
      "nodes": [
        0,
        1
      ]
    }
  ],
  "nodes": [
    {
      "mesh": 0,
      "translation": [
        0.138280511,
        0.07430681,
        0.186434239
      ],
      "rotation": [
        0.3249626,
        -0.254265428,
        -0.09758963,
        0.905662537
      ],
      "scale": [
        0.0366263539,
        0.0366263539,
        0.0366263539
      ],
      "name": "Box002"
    },
    {
      "mesh": 1,
      "translation": [
        0.1354671,
        0.0442246459,
        0.218416944
      ],
      "rotation": [
        0.3249626,
        -0.254265428,
        -0.09758965,
        0.905662537
      ],
      "scale": [
        0.0366263539,
        0.0366263539,
        0.0366263464
      ],
      "name": "Box003"
    }
  ],
  "meshes": [
    {
      "primitives": [
        {
          "attributes": {
            "POSITION": 1,
            "NORMAL": 2,
            "TEXCOORD_0": 3
          },
          "indices": 0,
          "material": 0
        }
      ],
      "name": "Box002"
    },
    {
      "primitives": [
        {
          "attributes": {
            "POSITION": 5,
            "NORMAL": 6,
            "TEXCOORD_0": 7
          },
          "indices": 4,
          "material": 1
        }
      ],
      "name": "Box003"
    }
  ],
  "accessors": [
    {
      "bufferView": 0,
      "componentType": 5123,
      "count": 3588,
      "type": "SCALAR",
      "name": "accessorIndices"
    },
    {
      "bufferView": 1,
      "componentType": 5126,
      "count": 1008,
      "max": [
        2.96142936,
        0.02947961,
        -0.8461642
      ],
      "min": [
        1.25198436,
        -0.222520664,
        -1.74616456
      ],
      "type": "VEC3",
      "name": "accessorPositions"
    },
    {
      "bufferView": 1,
      "byteOffset": 12096,
      "componentType": 5126,
      "count": 1008,
      "type": "VEC3",
      "name": "accessorNormals"
    },
    {
      "bufferView": 2,
      "componentType": 5126,
      "count": 1008,
      "type": "VEC2",
      "name": "accessorUVs"
    },
    {
      "bufferView": 0,
      "byteOffset": 7176,
      "componentType": 5123,
      "count": 3588,
      "type": "SCALAR",
      "name": "accessorIndices"
    },
    {
      "bufferView": 1,
      "byteOffset": 24192,
      "componentType": 5126,
      "count": 1008,
      "max": [
        2.96142936,
        0.0294798855,
        -0.8461644
      ],
      "min": [
        1.25198448,
        -0.2225204,
        -1.74616468
      ],
      "type": "VEC3",
      "name": "accessorPositions"
    },
    {
      "bufferView": 1,
      "byteOffset": 36288,
      "componentType": 5126,
      "count": 1008,
      "type": "VEC3",
      "name": "accessorNormals"
    },
    {
      "bufferView": 2,
      "byteOffset": 8064,
      "componentType": 5126,
      "count": 1008,
      "type": "VEC2",
      "name": "accessorUVs"
    }
  ],
  "bufferViews": [
    {
      "buffer": 0,
      "byteLength": 14352,
      "name": "bufferViewScalar"
    },
    {
      "buffer": 0,
      "byteOffset": 14352,
      "byteLength": 48384,
      "byteStride": 12,
      "name": "bufferViewFloatVec3"
    },
    {
      "buffer": 0,
      "byteOffset": 62736,
      "byteLength": 16128,
      "byteStride": 8,
      "name": "bufferViewFloatVec2"
    }
  ],
  "buffers": [
    {
      "uri": "cajas.bin",
      "byteLength": 78864
    }
  ],
  "materials": [
    {
      "pbrMetallicRoughness": {
        "baseColorTexture": {
          "index": 0
        },
        "metallicFactor": 0.0,
        "roughnessFactor": 0.450053632
      },
      "name": "caja-100"
    },
    {
      "pbrMetallicRoughness": {
        "baseColorTexture": {
          "index": 1
        },
        "metallicFactor": 0.0,
        "roughnessFactor": 0.450053632
      },
      "name": "caja 150"
    }
  ],
  "textures": [
    {
      "sampler": 0,
      "source": 0,
      "name": "Caja-NINDANIB-100.jpg"
    },
    {
      "sampler": 0,
      "source": 1,
      "name": "Caja-NINDANIB-150.jpg"
    }
  ],
  "images": [
    {
      "uri": "texturas/Caja-NINDANIB-100.jpg"
    },
    {
      "uri": "texturas/Caja-NINDANIB-150.jpg"
    }
  ],
  "samplers": [
    {
      "magFilter": 9729,
      "minFilter": 9987
    }
  ]
}