{
  "asset": {
    "version": "2.0",
    "generator": "babylon.js glTF exporter for 3dsmax 2024 v20241219.2"
  },
  "scene": 0,
  "scenes": [
    {
      "nodes": [
        0
      ]
    }
  ],
  "nodes": [
    {
      "mesh": 0,
      "translation": [
        0.0835106,
        0.04286931,
        1.693045E-09
      ],
      "rotation": [
        0.7071068,
        6.181723E-08,
        -6.181724E-08,
        0.7071067
      ],
      "scale": [
        1.64029,
        1.64029,
        1.64029
      ],
      "name": "Circle005"
    }
  ],
  "meshes": [
    {
      "primitives": [
        {
          "attributes": {
            "POSITION": 1,
            "NORMAL": 2,
            "TEXCOORD_0": 3
          },
          "indices": 0,
          "material": 0
        }
      ],
      "name": "Circle005"
    }
  ],
  "accessors": [
    {
      "bufferView": 0,
      "componentType": 5123,
      "count": 1866,
      "type": "SCALAR",
      "name": "accessorIndices"
    },
    {
      "bufferView": 1,
      "componentType": 5126,
      "count": 417,
      "max": [
        0.0155,
        0.00181981036,
        0.0155
      ],
      "min": [
        -0.0155,
        0.0,
        -0.0155
      ],
      "type": "VEC3",
      "name": "accessorPositions"
    },
    {
      "bufferView": 1,
      "byteOffset": 5004,
      "componentType": 5126,
      "count": 417,
      "type": "VEC3",
      "name": "accessorNormals"
    },
    {
      "bufferView": 2,
      "componentType": 5126,
      "count": 417,
      "type": "VEC2",
      "name": "accessorUVs"
    }
  ],
  "bufferViews": [
    {
      "buffer": 0,
      "byteLength": 3732,
      "name": "bufferViewScalar"
    },
    {
      "buffer": 0,
      "byteOffset": 3732,
      "byteLength": 10008,
      "byteStride": 12,
      "name": "bufferViewFloatVec3"
    },
    {
      "buffer": 0,
      "byteOffset": 13740,
      "byteLength": 3336,
      "byteStride": 8,
      "name": "bufferViewFloatVec2"
    }
  ],
  "buffers": [
    {
      "uri": "boton-cadena-desplegado-estatico.bin",
      "byteLength": 17076
    }
  ],
  "materials": [
    {
      "pbrMetallicRoughness": {
        "baseColorTexture": {
          "index": 0
        },
        "metallicFactor": 0.0,
        "roughnessFactor": 0.450053632
      },
      "name": "btn-cadena"
    }
  ],
  "textures": [
    {
      "sampler": 0,
      "source": 0,
      "name": "boton-cadena.jpg"
    }
  ],
  "images": [
    {
      "uri": "texturas/boton-cadena.jpg"
    }
  ],
  "samplers": [
    {
      "magFilter": 9729,
      "minFilter": 9987
    }
  ]
}