{
  "asset": {
    "version": "2.0",
    "generator": "babylon.js glTF exporter for 3dsmax 2024 v20241219.2"
  },
  "scene": 0,
  "scenes": [
    {
      "nodes": [
        0
      ]
    }
  ],
  "nodes": [
    {
      "mesh": 0,
      "translation": [
        0.08466426,
        0.0528407358,
        0.01354943
      ],
      "rotation": [
        0.7071069,
        0.0,
        0.0,
        0.70710665
      ],
      "scale": [
        1.21659434,
        1.21659434,
        1.21659434
      ],
      "name": "Line001"
    }
  ],
  "meshes": [
    {
      "primitives": [
        {
          "attributes": {
            "POSITION": 1,
            "NORMAL": 2,
            "TEXCOORD_0": 3
          },
          "indices": 0,
          "material": 0
        }
      ],
      "name": "Line001"
    }
  ],
  "accessors": [
    {
      "bufferView": 0,
      "componentType": 5123,
      "count": 5796,
      "type": "SCALAR",
      "name": "accessorIndices"
    },
    {
      "bufferView": 1,
      "componentType": 5126,
      "count": 2050,
      "max": [
        0.02777277,
        -0.00192097761,
        0.026948113
      ],
      "min": [
        -0.0282788388,
        -0.009108207,
        -0.0285428073
      ],
      "type": "VEC3",
      "name": "accessorPositions"
    },
    {
      "bufferView": 1,
      "byteOffset": 24600,
      "componentType": 5126,
      "count": 2050,
      "type": "VEC3",
      "name": "accessorNormals"
    },
    {
      "bufferView": 2,
      "componentType": 5126,
      "count": 2050,
      "type": "VEC2",
      "name": "accessorUVs"
    }
  ],
  "bufferViews": [
    {
      "buffer": 0,
      "byteLength": 11592,
      "name": "bufferViewScalar"
    },
    {
      "buffer": 0,
      "byteOffset": 11592,
      "byteLength": 49200,
      "byteStride": 12,
      "name": "bufferViewFloatVec3"
    },
    {
      "buffer": 0,
      "byteOffset": 60792,
      "byteLength": 16400,
      "byteStride": 8,
      "name": "bufferViewFloatVec2"
    }
  ],
  "buffers": [
    {
      "uri": "boton-engranaje-investigacion-desplegado-estatico.bin",
      "byteLength": 77192
    }
  ],
  "materials": [
    {
      "pbrMetallicRoughness": {
        "baseColorTexture": {
          "index": 0
        },
        "metallicFactor": 0.0,
        "roughnessFactor": 0.450053632
      },
      "name": "btn-engranaje-1"
    }
  ],
  "textures": [
    {
      "sampler": 0,
      "source": 0,
      "name": "boton-engranaje-investigacion.jpg"
    }
  ],
  "images": [
    {
      "uri": "texturas/boton-engranaje-investigacion.jpg"
    }
  ],
  "samplers": [
    {
      "magFilter": 9729,
      "minFilter": 9987
    }
  ]
}