{
  "asset": {
    "version": "2.0",
    "generator": "babylon.js glTF exporter for 3dsmax 2024 v20241219.2"
  },
  "scene": 0,
  "scenes": [
    {
      "nodes": [
        0,
        1,
        2,
        3
      ]
    }
  ],
  "nodes": [
    {
      "mesh": 0,
      "translation": [
        0.0387934335,
        -0.05,
        3.70424469E-09
      ],
      "rotation": [
        0.7071068,
        0.0,
        0.0,
        0.7071067
      ],
      "scale": [
        1.0,
        0.024891125,
        1.0
      ],
      "name": "Rectangle001"
    },
    {
      "mesh": 1,
      "translation": [
        0.06802326,
        -0.05,
        3.48228846E-09
      ],
      "rotation": [
        0.7071068,
        0.0,
        0.0,
        0.7071067
      ],
      "scale": [
        1.0,
        0.0249024369,
        1.0
      ],
      "name": "Rectangle002"
    },
    {
      "mesh": 2,
      "translation": [
        0.0967766047,
        -0.0500000045,
        3.25128968E-09
      ],
      "rotation": [
        0.7071068,
        0.0,
        0.0,
        0.7071067
      ],
      "scale": [
        1.0,
        0.0248906016,
        1.0
      ],
      "name": "Rectangle003"
    },
    {
      "mesh": 3,
      "translation": [
        0.126586869,
        -0.0499999933,
        3.43399531E-09
      ],
      "rotation": [
        0.7071068,
        0.0,
        0.0,
        0.7071067
      ],
      "scale": [
        1.0,
        0.0249414556,
        1.0
      ],
      "name": "Rectangle004"
    }
  ],
  "meshes": [
    {
      "primitives": [
        {
          "attributes": {
            "POSITION": 1,
            "NORMAL": 2,
            "TEXCOORD_0": 3
          },
          "indices": 0,
          "material": 0
        }
      ],
      "name": "Rectangle001"
    },
    {
      "primitives": [
        {
          "attributes": {
            "POSITION": 5,
            "NORMAL": 6,
            "TEXCOORD_0": 7
          },
          "indices": 4,
          "material": 1
        }
      ],
      "name": "Rectangle002"
    },
    {
      "primitives": [
        {
          "attributes": {
            "POSITION": 9,
            "NORMAL": 10,
            "TEXCOORD_0": 11
          },
          "indices": 8,
          "material": 2
        }
      ],
      "name": "Rectangle003"
    },
    {
      "primitives": [
        {
          "attributes": {
            "POSITION": 13,
            "NORMAL": 14,
            "TEXCOORD_0": 15
          },
          "indices": 12,
          "material": 3
        }
      ],
      "name": "Rectangle004"
    }
  ],
  "accessors": [
    {
      "bufferView": 0,
      "componentType": 5123,
      "count": 372,
      "type": "SCALAR",
      "name": "accessorIndices"
    },
    {
      "bufferView": 1,
      "componentType": 5126,
      "count": 144,
      "max": [
        0.008087033,
        0.0169999991,
        0.0457495041
      ],
      "min": [
        -0.008087033,
        0.0,
        -0.0457495041
      ],
      "type": "VEC3",
      "name": "accessorPositions"
    },
    {
      "bufferView": 1,
      "byteOffset": 1728,
      "componentType": 5126,
      "count": 144,
      "type": "VEC3",
      "name": "accessorNormals"
    },
    {
      "bufferView": 2,
      "componentType": 5126,
      "count": 144,
      "type": "VEC2",
      "name": "accessorUVs"
    },
    {
      "bufferView": 0,
      "byteOffset": 744,
      "componentType": 5123,
      "count": 372,
      "type": "SCALAR",
      "name": "accessorIndices"
    },
    {
      "bufferView": 1,
      "byteOffset": 3456,
      "componentType": 5126,
      "count": 144,
      "max": [
        0.008087033,
        0.0169999991,
        0.0370571
      ],
      "min": [
        -0.008087033,
        0.0,
        -0.0370571
      ],
      "type": "VEC3",
      "name": "accessorPositions"
    },
    {
      "bufferView": 1,
      "byteOffset": 5184,
      "componentType": 5126,
      "count": 144,
      "type": "VEC3",
      "name": "accessorNormals"
    },
    {
      "bufferView": 2,
      "byteOffset": 1152,
      "componentType": 5126,
      "count": 144,
      "type": "VEC2",
      "name": "accessorUVs"
    },
    {
      "bufferView": 0,
      "byteOffset": 1488,
      "componentType": 5123,
      "count": 372,
      "type": "SCALAR",
      "name": "accessorIndices"
    },
    {
      "bufferView": 1,
      "byteOffset": 6912,
      "componentType": 5126,
      "count": 144,
      "max": [
        0.008087033,
        0.0169999991,
        0.027359603
      ],
      "min": [
        -0.008087033,
        0.0,
        -0.027359603
      ],
      "type": "VEC3",
      "name": "accessorPositions"
    },
    {
      "bufferView": 1,
      "byteOffset": 8640,
      "componentType": 5126,
      "count": 144,
      "type": "VEC3",
      "name": "accessorNormals"
    },
    {
      "bufferView": 2,
      "byteOffset": 2304,
      "componentType": 5126,
      "count": 144,
      "type": "VEC2",
      "name": "accessorUVs"
    },
    {
      "bufferView": 0,
      "byteOffset": 2232,
      "componentType": 5123,
      "count": 372,
      "type": "SCALAR",
      "name": "accessorIndices"
    },
    {
      "bufferView": 1,
      "byteOffset": 10368,
      "componentType": 5126,
      "count": 144,
      "max": [
        0.008087033,
        0.0169999991,
        0.0336247049
      ],
      "min": [
        -0.008087033,
        0.0,
        -0.0336247049
      ],
      "type": "VEC3",
      "name": "accessorPositions"
    },
    {
      "bufferView": 1,
      "byteOffset": 12096,
      "componentType": 5126,
      "count": 144,
      "type": "VEC3",
      "name": "accessorNormals"
    },
    {
      "bufferView": 2,
      "byteOffset": 3456,
      "componentType": 5126,
      "count": 144,
      "type": "VEC2",
      "name": "accessorUVs"
    },
    {
      "bufferView": 3,
      "componentType": 5126,
      "count": 7,
      "max": [
        1.83333337
      ],
      "min": [
        0.0
      ],
      "type": "SCALAR",
      "name": "accessorAnimationInput"
    },
    {
      "bufferView": 4,
      "componentType": 5126,
      "count": 7,
      "type": "VEC3",
      "name": "accessorAnimationPositions"
    },
    {
      "bufferView": 3,
      "byteOffset": 28,
      "componentType": 5126,
      "count": 8,
      "max": [
        1.83333337
      ],
      "min": [
        0.0
      ],
      "type": "SCALAR",
      "name": "accessorAnimationInput"
    },
    {
      "bufferView": 4,
      "byteOffset": 84,
      "componentType": 5126,
      "count": 8,
      "type": "VEC3",
      "name": "accessorAnimationScales"
    },
    {
      "bufferView": 3,
      "byteOffset": 60,
      "componentType": 5126,
      "count": 8,
      "max": [
        1.83333337
      ],
      "min": [
        0.0
      ],
      "type": "SCALAR",
      "name": "accessorAnimationInput"
    },
    {
      "bufferView": 4,
      "byteOffset": 180,
      "componentType": 5126,
      "count": 8,
      "type": "VEC3",
      "name": "accessorAnimationPositions"
    },
    {
      "bufferView": 3,
      "byteOffset": 92,
      "componentType": 5126,
      "count": 8,
      "max": [
        1.83333337
      ],
      "min": [
        0.0
      ],
      "type": "SCALAR",
      "name": "accessorAnimationInput"
    },
    {
      "bufferView": 4,
      "byteOffset": 276,
      "componentType": 5126,
      "count": 8,
      "type": "VEC3",
      "name": "accessorAnimationScales"
    },
    {
      "bufferView": 3,
      "byteOffset": 124,
      "componentType": 5126,
      "count": 8,
      "max": [
        1.83333337
      ],
      "min": [
        0.0
      ],
      "type": "SCALAR",
      "name": "accessorAnimationInput"
    },
    {
      "bufferView": 4,
      "byteOffset": 372,
      "componentType": 5126,
      "count": 8,
      "type": "VEC3",
      "name": "accessorAnimationPositions"
    },
    {
      "bufferView": 3,
      "byteOffset": 156,
      "componentType": 5126,
      "count": 8,
      "max": [
        1.83333337
      ],
      "min": [
        0.0
      ],
      "type": "SCALAR",
      "name": "accessorAnimationInput"
    },
    {
      "bufferView": 4,
      "byteOffset": 468,
      "componentType": 5126,
      "count": 8,
      "type": "VEC3",
      "name": "accessorAnimationScales"
    },
    {
      "bufferView": 3,
      "byteOffset": 188,
      "componentType": 5126,
      "count": 8,
      "max": [
        1.83333337
      ],
      "min": [
        0.0
      ],
      "type": "SCALAR",
      "name": "accessorAnimationInput"
    },
    {
      "bufferView": 4,
      "byteOffset": 564,
      "componentType": 5126,
      "count": 8,
      "type": "VEC3",
      "name": "accessorAnimationPositions"
    },
    {
      "bufferView": 3,
      "byteOffset": 220,
      "componentType": 5126,
      "count": 7,
      "max": [
        1.83333337
      ],
      "min": [
        0.0
      ],
      "type": "SCALAR",
      "name": "accessorAnimationInput"
    },
    {
      "bufferView": 4,
      "byteOffset": 660,
      "componentType": 5126,
      "count": 7,
      "type": "VEC3",
      "name": "accessorAnimationScales"
    }
  ],
  "bufferViews": [
    {
      "buffer": 0,
      "byteLength": 2976,
      "name": "bufferViewScalar"
    },
    {
      "buffer": 0,
      "byteOffset": 2976,
      "byteLength": 13824,
      "byteStride": 12,
      "name": "bufferViewFloatVec3"
    },
    {
      "buffer": 0,
      "byteOffset": 16800,
      "byteLength": 4608,
      "byteStride": 8,
      "name": "bufferViewFloatVec2"
    },
    {
      "buffer": 0,
      "byteOffset": 21408,
      "byteLength": 248,
      "name": "bufferViewAnimationFloatScalar"
    },
    {
      "buffer": 0,
      "byteOffset": 21656,
      "byteLength": 744,
      "name": "bufferViewAnimationFloatVec3"
    }
  ],
  "buffers": [
    {
      "uri": "grafico-barras-animado.bin",
      "byteLength": 22400
    }
  ],
  "materials": [
    {
      "pbrMetallicRoughness": {
        "baseColorTexture": {
          "index": 0
        },
        "metallicFactor": 0.0,
        "roughnessFactor": 0.450053632
      },
      "name": "barra-grafica-1"
    },
    {
      "pbrMetallicRoughness": {
        "baseColorTexture": {
          "index": 1
        },
        "metallicFactor": 0.0,
        "roughnessFactor": 0.450053632
      },
      "name": "barra-grafica-2"
    },
    {
      "pbrMetallicRoughness": {
        "baseColorTexture": {
          "index": 2
        },
        "metallicFactor": 0.0,
        "roughnessFactor": 0.450053632
      },
      "name": "barra-grafica-3"
    },
    {
      "pbrMetallicRoughness": {
        "baseColorTexture": {
          "index": 3
        },
        "metallicFactor": 0.0,
        "roughnessFactor": 0.450053632
      },
      "name": "barra-grafica-4"
    }
  ],
  "textures": [
    {
      "sampler": 0,
      "source": 0,
      "name": "barra-grafica-1.jpg"
    },
    {
      "sampler": 0,
      "source": 1,
      "name": "barra-grafica-2.jpg"
    },
    {
      "sampler": 0,
      "source": 2,
      "name": "barra-grafica-3.jpg"
    },
    {
      "sampler": 0,
      "source": 3,
      "name": "barra-grafica-4.jpg"
    }
  ],
  "images": [
    {
      "uri": "texturas/barra-grafica-1.jpg"
    },
    {
      "uri": "texturas/barra-grafica-2.jpg"
    },
    {
      "uri": "texturas/barra-grafica-3.jpg"
    },
    {
      "uri": "texturas/barra-grafica-4.jpg"
    }
  ],
  "samplers": [
    {
      "magFilter": 9729,
      "minFilter": 9987
    }
  ],
  "animations": [
    {
      "channels": [
        {
          "sampler": 0,
          "target": {
            "node": 0,
            "path": "translation"
          }
        },
        {
          "sampler": 1,
          "target": {
            "node": 0,
            "path": "scale"
          }
        },
        {
          "sampler": 2,
          "target": {
            "node": 1,
            "path": "translation"
          }
        },
        {
          "sampler": 3,
          "target": {
            "node": 1,
            "path": "scale"
          }
        },
        {
          "sampler": 4,
          "target": {
            "node": 2,
            "path": "translation"
          }
        },
        {
          "sampler": 5,
          "target": {
            "node": 2,
            "path": "scale"
          }
        },
        {
          "sampler": 6,
          "target": {
            "node": 3,
            "path": "translation"
          }
        },
        {
          "sampler": 7,
          "target": {
            "node": 3,
            "path": "scale"
          }
        }
      ],
      "samplers": [
        {
          "input": 16,
          "output": 17
        },
        {
          "input": 18,
          "output": 19
        },
        {
          "input": 20,
          "output": 21
        },
        {
          "input": 22,
          "output": 23
        },
        {
          "input": 24,
          "output": 25
        },
        {
          "input": 26,
          "output": 27
        },
        {
          "input": 28,
          "output": 29
        },
        {
          "input": 30,
          "output": 31
        }
      ],
      "name": "All Animations"
    }
  ]
}