{
  "asset": {
    "version": "2.0",
    "generator": "babylon.js glTF exporter for 3dsmax 2024 v20241219.2"
  },
  "scene": 0,
  "scenes": [
    {
      "nodes": [
        0,
        1,
        2,
        3,
        4
      ]
    }
  ],
  "nodes": [
    {
      "mesh": 0,
      "translation": [
        0.07309343,
        0.229343489,
        6.40583675E-09
      ],
      "scale": [
        0.3374283,
        0.3374283,
        0.3374283
      ],
      "name": "Sphere001"
    },
    {
      "mesh": 1,
      "translation": [
        0.196162269,
        0.22934,
        7.435935E-09
      ],
      "scale": [
        0.3374283,
        0.3374283,
        0.3374283
      ],
      "name": "Sphere002"
    },
    {
      "mesh": 2,
      "translation": [
        -0.0338231772,
        0.05375025,
        0.01354943
      ],
      "rotation": [
        0.7071068,
        0.0,
        0.0,
        0.7071067
      ],
      "name": "Line001"
    },
    {
      "mesh": 3,
      "translation": [
        0.136541277,
        -0.0336884074,
        0.008034837
      ],
      "rotation": [
        -0.482825756,
        0.5166005,
        0.5166038,
        -0.4828289
      ],
      "name": "Line002"
    },
    {
      "mesh": 4,
      "translation": [
        0.307286233,
        0.05484681,
        0.008034837
      ],
      "rotation": [
        0.7071068,
        0.0,
        0.0,
        0.7071067
      ],
      "name": "Line003"
    }
  ],
  "meshes": [
    {
      "primitives": [
        {
          "attributes": {
            "POSITION": 1,
            "NORMAL": 2,
            "TEXCOORD_0": 3
          },
          "indices": 0,
          "material": 0
        }
      ],
      "name": "Sphere001"
    },
    {
      "primitives": [
        {
          "attributes": {
            "POSITION": 5,
            "NORMAL": 6,
            "TEXCOORD_0": 7
          },
          "indices": 4,
          "material": 1
        }
      ],
      "name": "Sphere002"
    },
    {
      "primitives": [
        {
          "attributes": {
            "POSITION": 9,
            "NORMAL": 10,
            "TEXCOORD_0": 11
          },
          "indices": 8,
          "material": 2
        }
      ],
      "name": "Line001"
    },
    {
      "primitives": [
        {
          "attributes": {
            "POSITION": 13,
            "NORMAL": 14,
            "TEXCOORD_0": 15
          },
          "indices": 12,
          "material": 3
        }
      ],
      "name": "Line002"
    },
    {
      "primitives": [
        {
          "attributes": {
            "POSITION": 17,
            "NORMAL": 18,
            "TEXCOORD_0": 19
          },
          "indices": 16,
          "material": 4
        }
      ],
      "name": "Line003"
    }
  ],
  "accessors": [
    {
      "bufferView": 0,
      "componentType": 5123,
      "count": 10440,
      "type": "SCALAR",
      "name": "accessorIndices"
    },
    {
      "bufferView": 1,
      "componentType": 5126,
      "count": 1802,
      "max": [
        0.0532,
        0.0532,
        0.0532
      ],
      "min": [
        -0.0532,
        -0.0532,
        -0.0532
      ],
      "type": "VEC3",
      "name": "accessorPositions"
    },
    {
      "bufferView": 1,
      "byteOffset": 21624,
      "componentType": 5126,
      "count": 1802,
      "type": "VEC3",
      "name": "accessorNormals"
    },
    {
      "bufferView": 2,
      "componentType": 5126,
      "count": 1802,
      "type": "VEC2",
      "name": "accessorUVs"
    },
    {
      "bufferView": 0,
      "byteOffset": 20880,
      "componentType": 5123,
      "count": 10440,
      "type": "SCALAR",
      "name": "accessorIndices"
    },
    {
      "bufferView": 1,
      "byteOffset": 43248,
      "componentType": 5126,
      "count": 1802,
      "max": [
        0.0532,
        0.0532,
        0.0532
      ],
      "min": [
        -0.0532,
        -0.0532,
        -0.0532
      ],
      "type": "VEC3",
      "name": "accessorPositions"
    },
    {
      "bufferView": 1,
      "byteOffset": 64872,
      "componentType": 5126,
      "count": 1802,
      "type": "VEC3",
      "name": "accessorNormals"
    },
    {
      "bufferView": 2,
      "byteOffset": 14416,
      "componentType": 5126,
      "count": 1802,
      "type": "VEC2",
      "name": "accessorUVs"
    },
    {
      "bufferView": 0,
      "byteOffset": 41760,
      "componentType": 5123,
      "count": 5796,
      "type": "SCALAR",
      "name": "accessorIndices"
    },
    {
      "bufferView": 1,
      "byteOffset": 86496,
      "componentType": 5126,
      "count": 2050,
      "max": [
        0.02777277,
        -0.00192097761,
        0.026948113
      ],
      "min": [
        -0.0282788388,
        -0.009108207,
        -0.0285428073
      ],
      "type": "VEC3",
      "name": "accessorPositions"
    },
    {
      "bufferView": 1,
      "byteOffset": 111096,
      "componentType": 5126,
      "count": 2050,
      "type": "VEC3",
      "name": "accessorNormals"
    },
    {
      "bufferView": 2,
      "byteOffset": 28832,
      "componentType": 5126,
      "count": 2050,
      "type": "VEC2",
      "name": "accessorUVs"
    },
    {
      "bufferView": 0,
      "byteOffset": 53352,
      "componentType": 5123,
      "count": 5796,
      "type": "SCALAR",
      "name": "accessorIndices"
    },
    {
      "bufferView": 1,
      "byteOffset": 135696,
      "componentType": 5126,
      "count": 2050,
      "max": [
        0.02868725,
        -0.00191852439,
        0.027784301
      ],
      "min": [
        -0.0272805225,
        -0.009110729,
        -0.02794494
      ],
      "type": "VEC3",
      "name": "accessorPositions"
    },
    {
      "bufferView": 1,
      "byteOffset": 160296,
      "componentType": 5126,
      "count": 2050,
      "type": "VEC3",
      "name": "accessorNormals"
    },
    {
      "bufferView": 2,
      "byteOffset": 45232,
      "componentType": 5126,
      "count": 2050,
      "type": "VEC2",
      "name": "accessorUVs"
    },
    {
      "bufferView": 0,
      "byteOffset": 64944,
      "componentType": 5123,
      "count": 5796,
      "type": "SCALAR",
      "name": "accessorIndices"
    },
    {
      "bufferView": 1,
      "byteOffset": 184896,
      "componentType": 5126,
      "count": 2050,
      "max": [
        0.0278931949,
        0.00359361572,
        0.027604
      ],
      "min": [
        -0.0281711854,
        -0.00359361456,
        -0.0277451575
      ],
      "type": "VEC3",
      "name": "accessorPositions"
    },
    {
      "bufferView": 1,
      "byteOffset": 209496,
      "componentType": 5126,
      "count": 2050,
      "type": "VEC3",
      "name": "accessorNormals"
    },
    {
      "bufferView": 2,
      "byteOffset": 61632,
      "componentType": 5126,
      "count": 2050,
      "type": "VEC2",
      "name": "accessorUVs"
    },
    {
      "bufferView": 3,
      "componentType": 5126,
      "count": 10,
      "max": [
        0.3
      ],
      "min": [
        0.0
      ],
      "type": "SCALAR",
      "name": "accessorAnimationInput"
    },
    {
      "bufferView": 4,
      "componentType": 5126,
      "count": 10,
      "type": "VEC3",
      "name": "accessorAnimationPositions"
    },
    {
      "bufferView": 3,
      "byteOffset": 40,
      "componentType": 5126,
      "count": 10,
      "max": [
        0.3
      ],
      "min": [
        0.0
      ],
      "type": "SCALAR",
      "name": "accessorAnimationInput"
    },
    {
      "bufferView": 4,
      "byteOffset": 120,
      "componentType": 5126,
      "count": 10,
      "type": "VEC3",
      "name": "accessorAnimationPositions"
    },
    {
      "bufferView": 3,
      "byteOffset": 80,
      "componentType": 5126,
      "count": 10,
      "max": [
        0.3
      ],
      "min": [
        0.0
      ],
      "type": "SCALAR",
      "name": "accessorAnimationInput"
    },
    {
      "bufferView": 4,
      "byteOffset": 240,
      "componentType": 5126,
      "count": 10,
      "type": "VEC3",
      "name": "accessorAnimationPositions"
    },
    {
      "bufferView": 3,
      "byteOffset": 120,
      "componentType": 5126,
      "count": 10,
      "max": [
        0.3
      ],
      "min": [
        0.0
      ],
      "type": "SCALAR",
      "name": "accessorAnimationInput"
    },
    {
      "bufferView": 4,
      "byteOffset": 360,
      "componentType": 5126,
      "count": 10,
      "type": "VEC3",
      "name": "accessorAnimationPositions"
    },
    {
      "bufferView": 3,
      "byteOffset": 160,
      "componentType": 5126,
      "count": 10,
      "max": [
        0.3
      ],
      "min": [
        0.0
      ],
      "type": "SCALAR",
      "name": "accessorAnimationInput"
    },
    {
      "bufferView": 5,
      "componentType": 5126,
      "count": 10,
      "type": "VEC4",
      "name": "accessorAnimationRotations"
    },
    {
      "bufferView": 3,
      "byteOffset": 200,
      "componentType": 5126,
      "count": 9,
      "max": [
        0.3
      ],
      "min": [
        0.0
      ],
      "type": "SCALAR",
      "name": "accessorAnimationInput"
    },
    {
      "bufferView": 4,
      "byteOffset": 480,
      "componentType": 5126,
      "count": 9,
      "type": "VEC3",
      "name": "accessorAnimationPositions"
    }
  ],
  "bufferViews": [
    {
      "buffer": 0,
      "byteLength": 76536,
      "name": "bufferViewScalar"
    },
    {
      "buffer": 0,
      "byteOffset": 76536,
      "byteLength": 234096,
      "byteStride": 12,
      "name": "bufferViewFloatVec3"
    },
    {
      "buffer": 0,
      "byteOffset": 310632,
      "byteLength": 78032,
      "byteStride": 8,
      "name": "bufferViewFloatVec2"
    },
    {
      "buffer": 0,
      "byteOffset": 388664,
      "byteLength": 236,
      "name": "bufferViewAnimationFloatScalar"
    },
    {
      "buffer": 0,
      "byteOffset": 388900,
      "byteLength": 588,
      "name": "bufferViewAnimationFloatVec3"
    },
    {
      "buffer": 0,
      "byteOffset": 389488,
      "byteLength": 160,
      "name": "bufferViewAnimationFloatVec4"
    }
  ],
  "buffers": [
    {
      "uri": "menu2-animacion.bin",
      "byteLength": 389648
    }
  ],
  "materials": [
    {
      "pbrMetallicRoughness": {
        "baseColorTexture": {
          "index": 0
        },
        "metallicFactor": 0.0,
        "roughnessFactor": 0.450053632
      },
      "name": "esfera-1"
    },
    {
      "pbrMetallicRoughness": {
        "baseColorTexture": {
          "index": 1
        },
        "metallicFactor": 0.0,
        "roughnessFactor": 0.450053632
      },
      "name": "esfera-2"
    },
    {
      "pbrMetallicRoughness": {
        "baseColorTexture": {
          "index": 2
        },
        "metallicFactor": 0.0,
        "roughnessFactor": 0.450053632
      },
      "name": "btn-engranaje-1"
    },
    {
      "pbrMetallicRoughness": {
        "baseColorTexture": {
          "index": 3
        },
        "metallicFactor": 0.0,
        "roughnessFactor": 0.450053632
      },
      "name": "btn-engranaje-2"
    },
    {
      "pbrMetallicRoughness": {
        "baseColorTexture": {
          "index": 4
        },
        "metallicFactor": 0.0,
        "roughnessFactor": 0.450053632
      },
      "name": "btn-engranaje-3"
    }
  ],
  "textures": [
    {
      "sampler": 0,
      "source": 0,
      "name": "esfera-plantas.jpg"
    },
    {
      "sampler": 0,
      "source": 1,
      "name": "esfera-investigacion.jpg"
    },
    {
      "sampler": 0,
      "source": 2,
      "name": "boton-engranaje-investigacion.jpg"
    },
    {
      "sampler": 0,
      "source": 3,
      "name": "boton-engranaje-pharma.jpg"
    },
    {
      "sampler": 0,
      "source": 4,
      "name": "boton-engranaje-microscopio.jpg"
    }
  ],
  "images": [
    {
      "uri": "texturas/esfera-plantas.jpg"
    },
    {
      "uri": "texturas/esfera-investigacion.jpg"
    },
    {
      "uri": "texturas/boton-engranaje-investigacion.jpg"
    },
    {
      "uri": "texturas/boton-engranaje-pharma.jpg"
    },
    {
      "uri": "texturas/boton-engranaje-microscopio.jpg"
    }
  ],
  "samplers": [
    {
      "magFilter": 9729,
      "minFilter": 9987
    }
  ],
  "animations": [
    {
      "channels": [
        {
          "sampler": 0,
          "target": {
            "node": 0,
            "path": "translation"
          }
        },
        {
          "sampler": 1,
          "target": {
            "node": 1,
            "path": "translation"
          }
        },
        {
          "sampler": 2,
          "target": {
            "node": 2,
            "path": "translation"
          }
        },
        {
          "sampler": 3,
          "target": {
            "node": 3,
            "path": "translation"
          }
        },
        {
          "sampler": 4,
          "target": {
            "node": 3,
            "path": "rotation"
          }
        },
        {
          "sampler": 5,
          "target": {
            "node": 4,
            "path": "translation"
          }
        }
      ],
      "samplers": [
        {
          "input": 20,
          "output": 21
        },
        {
          "input": 22,
          "output": 23
        },
        {
          "input": 24,
          "output": 25
        },
        {
          "input": 26,
          "output": 27
        },
        {
          "input": 28,
          "output": 29
        },
        {
          "input": 30,
          "output": 31
        }
      ],
      "name": "All Animations"
    }
  ]
}